{
    "accessors": [
        {
            "bufferView": 0,
            "byteOffset": 0,
            "componentType": 5126,
            "count": 175,
            "max": [
                0.6986939907073975,
                0.14202000200748444,
                0.8674049973487854
            ],
            "min": [
                -0.0967859998345375,
                -0.11033099889755249,
                -0.9244449734687805
            ],
            "name": "accessor_buffer_lightning_bolt.002_POSITION_0",
            "type": "VEC3"
        },
        {
            "bufferView": 3,
            "byteOffset": 0,
            "componentType": 5123,
            "count": 255,
            "max": [
                174
            ],
            "min": [
                0
            ],
            "name": "accessor_buffer_lightning_bolt.002_0",
            "type": "SCALAR"
        },
        {
            "bufferView": 1,
            "byteOffset": 0,
            "componentType": 5126,
            "count": 175,
            "max": [
                0.9914628267288208,
                0.990665853023529,
                0.7813616394996643
            ],
            "min": [
                -0.9130062460899353,
                -0.8980961441993713,
                -0.6831281781196594
            ],
            "name": "accessor_buffer_lightning_bolt.002_NORMAL_0",
            "type": "VEC3"
        },
        {
            "bufferView": 2,
            "byteOffset": 0,
            "componentType": 5126,
            "count": 175,
            "max": [
                0.9847999811172485,
                0.9809000007808208
            ],
            "min": [
                0.04410000145435333,
                0.014900028705596924
            ],
            "name": "accessor_buffer_lightning_bolt.002_TEXCOORD_0_0",
            "type": "VEC2"
        }
    ],
    "asset": {
        "copyright": "",
        "generator": "blendergltf v1.2.0",
        "version": "2.0"
    },
    "bufferViews": [
        {
            "buffer": 0,
            "byteLength": 2100,
            "byteOffset": 0,
            "byteStride": 12,
            "name": "bufferView_buffer_lightning_bolt.002_POSITION_0",
            "target": 34962
        },
        {
            "buffer": 0,
            "byteLength": 2100,
            "byteOffset": 2100,
            "byteStride": 12,
            "name": "bufferView_buffer_lightning_bolt.002_NORMAL_0",
            "target": 34962
        },
        {
            "buffer": 0,
            "byteLength": 1400,
            "byteOffset": 4200,
            "byteStride": 8,
            "name": "bufferView_buffer_lightning_bolt.002_TEXCOORD_0_0",
            "target": 34962
        },
        {
            "buffer": 0,
            "byteLength": 512,
            "byteOffset": 5600,
            "name": "bufferView_buffer_lightning_bolt.002_0",
            "target": 34963
        }
    ],
    "buffers": [
        {
            "byteLength": 6112,
            "name": "buffer_ln1",
            "uri": "buffer_ln1.bin"
        }
    ],
    "cameras": [
        {
            "name": "Camera",
            "perspective": {
                "aspectRatio": 1.703595982340029,
                "yfov": 0.5033799409866333,
                "zfar": 100.0,
                "znear": 0.10000000149011612
            },
            "type": "perspective"
        }
    ],
    "materials": [
        {
            "alphaMode": "OPAQUE",
            "doubleSided": false,
            "emissiveFactor": [
                0.5,
                0.5,
                0.5
            ],
            "name": "light",
            "pbrMetallicRoughness": {
                "baseColorFactor": [
                    0.64000004529953,
                    0.568332850933075,
                    0.08515936881303787,
                    1.0
                ],
                "metallicFactor": 0.0,
                "roughnessFactor": 1.0
            }
        }
    ],
    "meshes": [
        {
            "name": "lightning_bolt.002",
            "primitives": [
                {
                    "attributes": {
                        "NORMAL": 2,
                        "POSITION": 0,
                        "TEXCOORD_0": 3
                    },
                    "indices": 1,
                    "material": 0,
                    "mode": 4
                }
            ]
        }
    ],
    "nodes": [
        {
            "camera": 0,
            "name": "Camera",
            "rotation": [
                -0.09062843769788742,
                -0.8937962651252747,
                -0.2099730223417282,
                0.38578000664711
            ],
            "scale": [
                1.0,
                1.0,
                1.0
            ],
            "translation": [
                -7.481131553649902,
                5.34366512298584,
                -6.5076398849487305
            ]
        },
        {
            "name": "Lamp",
            "rotation": [
                -0.34203386306762695,
                -0.5232755541801453,
                -0.2841663062572479,
                0.7269423007965088
            ],
            "scale": [
                1.0,
                1.0,
                0.9999999403953552
            ],
            "translation": [
                -4.076245307922363,
                5.903861999511719,
                1.0054539442062378
            ]
        },
        {
            "mesh": 0,
            "name": "lightning_bolt.002",
            "rotation": [
                -0.7071068286895752,
                0.0,
                0.0,
                0.7071067094802856
            ],
            "scale": [
                1.0,
                1.0,
                1.0
            ],
            "translation": [
                0.0,
                0.0,
                0.0
            ]
        }
    ],
    "scene": 0,
    "scenes": [
        {
            "extras": {
                "active_camera": 0,
                "background_color": [
                    0.05087608844041824,
                    0.05087608844041824,
                    0.05087608844041824
                ],
                "frames_per_second": 24
            },
            "name": "Scene",
            "nodes": [
                2,
                1,
                0
            ]
        }
    ]
}
