{
    "accessors": [
        {
            "bufferView": 2,
            "byteOffset": 0,
            "componentType": 5126,
            "count": 40,
            "max": [
                0.06027486175298691,
                1.058515664190054
            ],
            "min": [
                -0.06659788638353348,
                0.964988149702549
            ],
            "name": "accessor_buffer_mesh829795324.002_TEXCOORD_0_0",
            "type": "VEC2"
        },
        {
            "bufferView": 1,
            "byteOffset": 0,
            "componentType": 5126,
            "count": 40,
            "max": [
                0.9535338878631592,
                0.8587258458137512,
                0.8972669243812561
            ],
            "min": [
                -0.7855411767959595,
                -0.855261504650116,
                -0.9577534198760986
            ],
            "name": "accessor_buffer_mesh829795324.002_NORMAL_0",
            "type": "VEC3"
        },
        {
            "bufferView": 0,
            "byteOffset": 0,
            "componentType": 5126,
            "count": 40,
            "max": [
                -0.2413753718137741,
                0.10727390646934509,
                -0.40095651149749756
            ],
            "min": [
                -0.30223432183265686,
                0.0523042157292366,
                -0.4925054907798767
            ],
            "name": "accessor_buffer_mesh829795324.002_POSITION_0",
            "type": "VEC3"
        },
        {
            "bufferView": 3,
            "byteOffset": 0,
            "componentType": 5123,
            "count": 48,
            "max": [
                39
            ],
            "min": [
                0
            ],
            "name": "accessor_buffer_mesh829795324.002_0",
            "type": "SCALAR"
        }
    ],
    "asset": {
        "copyright": "",
        "generator": "blendergltf v1.2.0",
        "version": "2.0"
    },
    "bufferViews": [
        {
            "buffer": 0,
            "byteLength": 480,
            "byteOffset": 0,
            "byteStride": 12,
            "name": "bufferView_buffer_mesh829795324.002_POSITION_0",
            "target": 34962
        },
        {
            "buffer": 0,
            "byteLength": 480,
            "byteOffset": 480,
            "byteStride": 12,
            "name": "bufferView_buffer_mesh829795324.002_NORMAL_0",
            "target": 34962
        },
        {
            "buffer": 0,
            "byteLength": 320,
            "byteOffset": 960,
            "byteStride": 8,
            "name": "bufferView_buffer_mesh829795324.002_TEXCOORD_0_0",
            "target": 34962
        },
        {
            "buffer": 0,
            "byteLength": 100,
            "byteOffset": 1280,
            "name": "bufferView_buffer_mesh829795324.002_0",
            "target": 34963
        }
    ],
    "buffers": [
        {
            "byteLength": 1380,
            "name": "buffer_raindrop",
            "uri": "buffer_raindrop.bin"
        }
    ],
    "cameras": [
        {
            "name": "Camera",
            "perspective": {
                "aspectRatio": 1.703595982340029,
                "yfov": 0.5033799409866333,
                "zfar": 100.0,
                "znear": 0.10000000149011612
            },
            "type": "perspective"
        }
    ],
    "materials": [
        {
            "alphaMode": "BLEND",
            "doubleSided": false,
            "emissiveFactor": [
                0.0,
                0.0,
                0.0
            ],
            "name": "mat5.001",
            "pbrMetallicRoughness": {
                "baseColorFactor": [
                    0.009999999776482582,
                    0.6100000143051147,
                    0.8999999761581421,
                    0.4658385217189789
                ],
                "metallicFactor": 0.0,
                "roughnessFactor": 1.0
            }
        }
    ],
    "meshes": [
        {
            "name": "mesh829795324.002",
            "primitives": [
                {
                    "attributes": {
                        "NORMAL": 1,
                        "POSITION": 2,
                        "TEXCOORD_0": 0
                    },
                    "indices": 3,
                    "material": 0,
                    "mode": 4
                }
            ]
        }
    ],
    "nodes": [
        {
            "camera": 0,
            "name": "Camera",
            "rotation": [
                -0.09062843769788742,
                -0.8937962651252747,
                -0.2099730223417282,
                0.38578000664711
            ],
            "scale": [
                1.0,
                1.0,
                1.0
            ],
            "translation": [
                -7.481131553649902,
                5.34366512298584,
                -6.5076398849487305
            ]
        },
        {
            "name": "Lamp",
            "rotation": [
                -0.34203386306762695,
                -0.5232755541801453,
                -0.2841663062572479,
                0.7269423007965088
            ],
            "scale": [
                1.0,
                1.0,
                0.9999999403953552
            ],
            "translation": [
                -4.076245307922363,
                5.903861999511719,
                1.0054539442062378
            ]
        },
        {
            "mesh": 0,
            "name": "mesh829795324.001",
            "rotation": [
                -0.7504421472549438,
                -0.1342230588197708,
                0.18433521687984467,
                0.6203557848930359
            ],
            "scale": [
                1.0,
                1.0,
                1.0
            ],
            "translation": [
                0.050951942801475525,
                0.5475615859031677,
                0.0
            ]
        }
    ],
    "scene": 0,
    "scenes": [
        {
            "extras": {
                "active_camera": 0,
                "background_color": [
                    0.05087608844041824,
                    0.05087608844041824,
                    0.05087608844041824
                ],
                "frames_per_second": 24
            },
            "name": "Scene",
            "nodes": [
                1,
                0,
                2
            ]
        }
    ]
}
